<?xml version="1.0" encoding="UTF-8" standalone="no"?>
<!-- Generator: Adobe Illustrator 18.0.0, SVG Export Plug-In . SVG Version: 6.00 Build 0)  -->

<svg
   xmlns:dc="http://purl.org/dc/elements/1.1/"
   xmlns:cc="http://creativecommons.org/ns#"
   xmlns:rdf="http://www.w3.org/1999/02/22-rdf-syntax-ns#"
   xmlns:svg="http://www.w3.org/2000/svg"
   xmlns="http://www.w3.org/2000/svg"
   xmlns:sodipodi="http://sodipodi.sourceforge.net/DTD/sodipodi-0.dtd"
   xmlns:inkscape="http://www.inkscape.org/namespaces/inkscape"
   version="1.1"
   id="Layer_1"
   x="0px"
   y="0px"
   viewBox="0 0 73.260742 65.599998"
   enable-background="new 0 0 100 100"
   xml:space="preserve"
   inkscape:version="0.91 r13725"
   sodipodi:docname="ico-faq-heart.svg"
   width="73.260742"
   height="65.599998"><metadata
     id="metadata22"><rdf:RDF><cc:Work
         rdf:about=""><dc:format>image/svg+xml</dc:format><dc:type
           rdf:resource="http://purl.org/dc/dcmitype/StillImage" /><dc:title></dc:title></cc:Work></rdf:RDF></metadata><defs
     id="defs20" /><sodipodi:namedview
     pagecolor="#ffffff"
     bordercolor="#666666"
     borderopacity="1"
     objecttolerance="10"
     gridtolerance="10"
     guidetolerance="10"
     inkscape:pageopacity="0"
     inkscape:pageshadow="2"
     inkscape:window-width="1920"
     inkscape:window-height="1035"
     id="namedview18"
     showgrid="false"
     fit-margin-top="0"
     fit-margin-left="0"
     fit-margin-right="0"
     fit-margin-bottom="0"
     inkscape:zoom="2.36"
     inkscape:cx="-31.935652"
     inkscape:cy="34.3"
     inkscape:window-x="0"
     inkscape:window-y="87"
     inkscape:window-maximized="0"
     inkscape:current-layer="Layer_1" /><g
     id="g14"
     transform="translate(-13.07972,-18.7)"><path
       d="M 49.6,84.3 C 49.6,84.3 28.4,63.7 27.3,62.7 22.3,57.8 16.6,52.4 14.2,46 12.1,40.4 13,34.1 16.5,28.6 c 3.8,-5.7 10.1,-9.5 16.4,-9.9 0.3,0 0.7,0 1.1,0 7.1,0 12.2,3.7 15.6,7.4 3.2,-3.4 8.4,-6.9 16.3,-7.2 0.3,0 0.6,0 0.9,0 5.9,0 11.3,2.4 14.9,6.8 3.8,4.6 5.4,10.8 4.3,17.1 -1.4,7.8 -7.3,13.8 -12.1,18.6 l -0.2,0.2 C 73,62.3 49.6,84.3 49.6,84.3 Z M 33.9,22.7 c -0.3,0 -0.6,0 -0.8,0 -5.1,0.3 -10.2,3.3 -13.3,8 -2.9,4.4 -3.5,9.4 -1.9,13.8 2.1,5.6 7.4,10.7 12,15.2 1.2,1.1 19.8,19.2 19.8,19.2 L 71,58.7 C 75.4,54.3 80.8,48.7 82,42.2 82.9,37.1 81.7,32 78.6,28.3 75.5,24.7 71.1,22.7 66,22.9 58.3,23.2 53.7,27.2 51.1,30.4 l -1.6,2.1 -1.6,-2.1 c -2.7,-3.5 -7.3,-7.7 -14,-7.7 z"
       id="path16"
       inkscape:connector-curvature="0"
       style="fill:#da2d59" /></g></svg>