<?xml version="1.0" encoding="UTF-8" standalone="no"?>
<!-- Generator: Adobe Illustrator 18.0.0, SVG Export Plug-In . SVG Version: 6.00 Build 0)  -->

<svg
   xmlns:dc="http://purl.org/dc/elements/1.1/"
   xmlns:cc="http://creativecommons.org/ns#"
   xmlns:rdf="http://www.w3.org/1999/02/22-rdf-syntax-ns#"
   xmlns:svg="http://www.w3.org/2000/svg"
   xmlns="http://www.w3.org/2000/svg"
   xmlns:sodipodi="http://sodipodi.sourceforge.net/DTD/sodipodi-0.dtd"
   xmlns:inkscape="http://www.inkscape.org/namespaces/inkscape"
   version="1.1"
   id="Layer_1"
   x="0px"
   y="0px"
   viewBox="0 0 80.199997 80.199997"
   enable-background="new 0 0 100 100"
   xml:space="preserve"
   inkscape:version="0.91 r13725"
   sodipodi:docname="ico-faq-clock-hover.svg"
   width="80.199997"
   height="80.199997"><metadata
     id="metadata33"><rdf:RDF><cc:Work
         rdf:about=""><dc:format>image/svg+xml</dc:format><dc:type
           rdf:resource="http://purl.org/dc/dcmitype/StillImage" /><dc:title></dc:title></cc:Work></rdf:RDF></metadata><defs
     id="defs31" /><sodipodi:namedview
     pagecolor="#ffffff"
     bordercolor="#666666"
     borderopacity="1"
     objecttolerance="10"
     gridtolerance="10"
     guidetolerance="10"
     inkscape:pageopacity="0"
     inkscape:pageshadow="2"
     inkscape:window-width="1920"
     inkscape:window-height="1031"
     id="namedview29"
     showgrid="false"
     fit-margin-top="0"
     fit-margin-left="0"
     fit-margin-right="0"
     fit-margin-bottom="0"
     inkscape:zoom="2.36"
     inkscape:cx="40"
     inkscape:cy="40.1"
     inkscape:window-x="1920"
     inkscape:window-y="0"
     inkscape:window-maximized="1"
     inkscape:current-layer="Layer_1" /><g
     id="g3"
     transform="translate(-10,-9.9)"><path
       d="M 50.1,9.9 C 28,9.9 10,27.9 10,50 10,72.1 28,90.1 50.1,90.1 72.2,90.1 90.2,72.1 90.2,50 90.2,27.9 72.3,9.9 50.1,9.9 Z m 0,75.7 c -19.6,0 -35.6,-16 -35.6,-35.6 0,-19.6 16,-35.6 35.6,-35.6 19.6,0 35.6,16 35.6,35.6 0,19.6 -15.9,35.6 -35.6,35.6 z"
       id="path5"
       inkscape:connector-curvature="0"
       style="fill:#ffffff" /><circle
       cx="80.400002"
       cy="50"
       r="2.5999999"
       id="circle7"
       style="fill:#ffffff" /><circle
       cx="19.9"
       cy="50"
       r="2.5999999"
       id="circle9"
       style="fill:#ffffff" /><circle
       cx="50.099998"
       cy="80.300003"
       r="2.5999999"
       id="circle11"
       style="fill:#ffffff" /><circle
       cx="65.300003"
       cy="23.799999"
       r="2.5999999"
       id="circle13"
       style="fill:#ffffff" /><circle
       cx="35"
       cy="76.199997"
       r="2.5999999"
       id="circle15"
       style="fill:#ffffff" /><circle
       cx="23.9"
       cy="34.900002"
       r="2.5999999"
       id="circle17"
       style="fill:#ffffff" /><circle
       cx="76.400002"
       cy="34.900002"
       r="2.5999999"
       id="circle19"
       style="fill:#ffffff" /><circle
       cx="23.9"
       cy="65.099998"
       r="2.5999999"
       id="circle21"
       style="fill:#ffffff" /><circle
       cx="35"
       cy="23.799999"
       r="2.5999999"
       id="circle23"
       style="fill:#ffffff" /><circle
       cx="65.300003"
       cy="76.199997"
       r="2.5999999"
       id="circle25"
       style="fill:#ffffff" /><path
       d="m 77.5,63.2 -25.1,-14.5 0,-29 c 0,-1.3 -1,-2.3 -2.3,-2.3 -1.3,0 -2.3,1 -2.3,2.3 l 0,30.3 c 0,0 0,0 0,0.1 0,0.1 0,0.2 0,0.2 0,0.1 0,0.1 0,0.2 0,0.1 0,0.1 0.1,0.2 0,0.1 0,0.1 0.1,0.2 0,0.1 0.1,0.1 0.1,0.2 0,0.1 0.1,0.1 0.1,0.2 0,0.1 0.1,0.1 0.1,0.2 0,0.1 0.1,0.1 0.1,0.2 0.1,0 0.1,0.1 0.2,0.1 0.1,0.1 0.1,0.1 0.2,0.1 0,0 0,0 0.1,0 L 75.1,67 c 0.4,0.2 0.7,0.3 1.1,0.3 0.8,0 1.5,-0.4 2,-1.1 0.8,-1 0.4,-2.4 -0.7,-3 z"
       id="path27"
       inkscape:connector-curvature="0"
       style="fill:#ffffff" /></g></svg>