<?xml version="1.0" encoding="UTF-8" standalone="no"?>
<!-- Generator: Adobe Illustrator 18.0.0, SVG Export Plug-In . SVG Version: 6.00 Build 0)  -->

<svg
   xmlns:dc="http://purl.org/dc/elements/1.1/"
   xmlns:cc="http://creativecommons.org/ns#"
   xmlns:rdf="http://www.w3.org/1999/02/22-rdf-syntax-ns#"
   xmlns:svg="http://www.w3.org/2000/svg"
   xmlns="http://www.w3.org/2000/svg"
   xmlns:sodipodi="http://sodipodi.sourceforge.net/DTD/sodipodi-0.dtd"
   xmlns:inkscape="http://www.inkscape.org/namespaces/inkscape"
   version="1.1"
   id="sad"
   x="0px"
   y="0px"
   viewBox="0 0 727.79997 330.4"
   enable-background="new 0 0 841.9 595.3"
   xml:space="preserve"
   inkscape:version="0.91 r13725"
   sodipodi:docname="ico-faq-implant-insert.svg"
   width="727.79999"
   height="330.39999"><metadata
     id="metadata30"><rdf:RDF><cc:Work
         rdf:about=""><dc:format>image/svg+xml</dc:format><dc:type
           rdf:resource="http://purl.org/dc/dcmitype/StillImage" /><dc:title></dc:title></cc:Work></rdf:RDF></metadata><defs
     id="defs28" /><sodipodi:namedview
     pagecolor="#ffffff"
     bordercolor="#666666"
     borderopacity="1"
     objecttolerance="10"
     gridtolerance="10"
     guidetolerance="10"
     inkscape:pageopacity="0"
     inkscape:pageshadow="2"
     inkscape:window-width="1920"
     inkscape:window-height="1031"
     id="namedview26"
     showgrid="false"
     fit-margin-top="0"
     fit-margin-left="0"
     fit-margin-right="0"
     fit-margin-bottom="0"
     inkscape:zoom="0.32545432"
     inkscape:cx="358.85001"
     inkscape:cy="152.55001"
     inkscape:window-x="1920"
     inkscape:window-y="0"
     inkscape:window-maximized="1"
     inkscape:current-layer="sad" /><g
     id="g18"
     transform="translate(-62.1,-119.8)"><path
       d="m 492,305.9 266.3,0 -114,114 c -3.3,3.3 -3.3,8.3 0,11.6 3.3,3.3 8.3,3.3 11.6,0 l 134,-134 -134.5,-134.2 c -1.7,-1.7 -3.7,-2.5 -5.8,-2.5 -2.1,0 -4.1,0.8 -5.8,2.5 -3.3,3.3 -3.3,8.3 0,11.6 l 114,114 -266.2,0 c -4.6,0 -8.3,3.7 -8.3,8.3 0,4.6 4.1,8.7 8.7,8.7 z"
       id="path20"
       inkscape:connector-curvature="0"
       style="fill:#da2d59" /></g><g
     id="g22"
     transform="translate(-62.1,-119.8)"><path
       d="m 90.5,450.2 c -7.6,0 -14.7,-3 -20.1,-8.3 -5.4,-5.4 -8.3,-12.5 -8.3,-20.1 0,-7.6 3,-14.7 8.3,-20.1 L 344,128.1 c 5.4,-5.4 12.5,-8.3 20.1,-8.3 7.6,0 14.7,3 20.1,8.3 5.4,5.4 8.3,12.5 8.3,20.1 0,7.6 -3,14.7 -8.3,20.1 L 110.6,441.9 c -5.4,5.4 -12.5,8.3 -20.1,8.3 z M 364.1,135.8 c -3.3,0 -6.4,1.3 -8.7,3.6 L 81.7,413.1 c -2.3,2.3 -3.6,5.4 -3.6,8.7 0,3.3 1.3,6.4 3.6,8.7 2.3,2.3 5.4,3.6 8.7,3.6 3.3,0 6.4,-1.3 8.7,-3.6 L 372.9,157 c 2.3,-2.3 3.6,-5.4 3.6,-8.7 0,-3.3 -1.3,-6.4 -3.6,-8.7 -2.4,-2.5 -5.5,-3.8 -8.8,-3.8 z"
       id="path24"
       inkscape:connector-curvature="0"
       style="fill:#da2d59" /></g></svg>