<?xml version="1.0" encoding="UTF-8" standalone="no"?>
<!-- Generator: Adobe Illustrator 18.0.0, SVG Export Plug-In . SVG Version: 6.00 Build 0)  -->

<svg
   xmlns:dc="http://purl.org/dc/elements/1.1/"
   xmlns:cc="http://creativecommons.org/ns#"
   xmlns:rdf="http://www.w3.org/1999/02/22-rdf-syntax-ns#"
   xmlns:svg="http://www.w3.org/2000/svg"
   xmlns="http://www.w3.org/2000/svg"
   xmlns:sodipodi="http://sodipodi.sourceforge.net/DTD/sodipodi-0.dtd"
   xmlns:inkscape="http://www.inkscape.org/namespaces/inkscape"
   version="1.1"
   id="sad"
   x="0px"
   y="0px"
   viewBox="0 0 67.588051 69.5"
   enable-background="new 0 0 100 100"
   xml:space="preserve"
   inkscape:version="0.91 r13725"
   sodipodi:docname="ico-faq-search.svg"
   width="67.588051"
   height="69.5"><metadata
     id="metadata9"><rdf:RDF><cc:Work
         rdf:about=""><dc:format>image/svg+xml</dc:format><dc:type
           rdf:resource="http://purl.org/dc/dcmitype/StillImage" /><dc:title></dc:title></cc:Work></rdf:RDF></metadata><defs
     id="defs7" /><sodipodi:namedview
     pagecolor="#ffffff"
     bordercolor="#666666"
     borderopacity="1"
     objecttolerance="10"
     gridtolerance="10"
     guidetolerance="10"
     inkscape:pageopacity="0"
     inkscape:pageshadow="2"
     inkscape:window-width="1920"
     inkscape:window-height="1031"
     id="namedview5"
     showgrid="false"
     inkscape:zoom="2.36"
     inkscape:cx="-17.147457"
     inkscape:cy="29.715254"
     inkscape:window-x="1920"
     inkscape:window-y="0"
     inkscape:window-maximized="1"
     inkscape:current-layer="sad"
     fit-margin-top="0"
     fit-margin-left="0"
     fit-margin-right="0"
     fit-margin-bottom="0" /><path
     d="M 67,66.1 47.7,46.8 c 4.7,-5 7.7,-11.7 7.7,-19.1 C 55.4,12.4 43,0 27.7,0 12.4,0 0,12.4 0,27.7 0,43 12.4,55.4 27.7,55.4 c 6.4,0 12.3,-2.2 17,-5.9 l 19.4,19.4 c 0.4,0.4 0.9,0.6 1.4,0.6 0.5,0 1,-0.2 1.4,-0.6 0.9,-0.8 0.9,-2 0.1,-2.8 z M 4,27.7 C 4,14.7 14.6,4 27.7,4 40.8,4 51.4,14.6 51.4,27.7 51.4,40.8 40.7,51.4 27.7,51.4 14.7,51.4 4,40.7 4,27.7 Z"
     id="path3"
     inkscape:connector-curvature="0"
     style="fill:#da2d59"
     inkscape:export-xdpi="90"
     inkscape:export-ydpi="90" /></svg>