<?xml version="1.0" encoding="UTF-8" standalone="no"?>
<!-- Generator: Adobe Illustrator 18.0.0, SVG Export Plug-In . SVG Version: 6.00 Build 0)  -->

<svg
   xmlns:dc="http://purl.org/dc/elements/1.1/"
   xmlns:cc="http://creativecommons.org/ns#"
   xmlns:rdf="http://www.w3.org/1999/02/22-rdf-syntax-ns#"
   xmlns:svg="http://www.w3.org/2000/svg"
   xmlns="http://www.w3.org/2000/svg"
   xmlns:sodipodi="http://sodipodi.sourceforge.net/DTD/sodipodi-0.dtd"
   xmlns:inkscape="http://www.inkscape.org/namespaces/inkscape"
   version="1.1"
   id="sad"
   x="0px"
   y="0px"
   viewBox="123.3 0 282.20002 288.5304"
   enable-background="new 123.3 0 595.3 595.3"
   xml:space="preserve"
   inkscape:version="0.91 r13725"
   sodipodi:docname="ico-faq-ius.svg"
   width="282.20001"
   height="288.5304"><metadata
     id="metadata22"><rdf:RDF><cc:Work
         rdf:about=""><dc:format>image/svg+xml</dc:format><dc:type
           rdf:resource="http://purl.org/dc/dcmitype/StillImage" /><dc:title></dc:title></cc:Work></rdf:RDF></metadata><defs
     id="defs20" /><sodipodi:namedview
     pagecolor="#ffffff"
     bordercolor="#666666"
     borderopacity="1"
     objecttolerance="10"
     gridtolerance="10"
     guidetolerance="10"
     inkscape:pageopacity="0"
     inkscape:pageshadow="2"
     inkscape:window-width="1920"
     inkscape:window-height="1035"
     id="namedview18"
     showgrid="false"
     fit-margin-top="0"
     fit-margin-left="0"
     fit-margin-right="0"
     fit-margin-bottom="0"
     inkscape:zoom="0.39643878"
     inkscape:cx="141.75"
     inkscape:cy="144.35001"
     inkscape:window-x="0"
     inkscape:window-y="87"
     inkscape:window-maximized="0"
     inkscape:current-layer="sad" /><g
     id="g14"
     transform="translate(-155.9,-153.46959)"><path
       d="m 543,178.2 c -0.4,0 -0.8,-0.4 -0.8,-0.4 -10,-3.7 -25.3,-9.5 -41.5,-14.1 -53.5,-16.2 -68.8,-10 -75.9,-2.9 -1.7,2.1 -3.3,3.7 -5,5.8 -1.7,-2.1 -3.3,-3.7 -5,-5.8 -7.1,-7.1 -22.4,-13.3 -75.9,2.9 -16.2,5 -31.5,10.4 -41.5,14.1 -0.4,0 -0.8,0.4 -0.8,0.4 -7.1,3.3 -12.9,8.3 -17.4,14.1 l 0,1.7 c 0.4,5.4 4.1,9.5 9.5,11.6 1.7,0.4 3.7,0.8 6.2,0.8 13.7,0 35.3,-10 45.6,-19.9 1.2,-0.4 2.1,-0.8 3.3,-0.8 44.8,-13.7 55.2,-9.1 56,-8.7 5,5 7.9,11.2 9.5,14.1 l 0,0.4 0,239.7 c 0,6.2 5,10.8 10.8,10.8 6.2,0 11.2,-5 11.2,-10.8 l 0,-239.7 0,-0.4 c 1.2,-2.9 4.1,-9.1 9.5,-14.1 0.8,-0.4 10.8,-5 56,8.7 1.2,0.4 2.1,0.8 3.3,0.8 10,10 31.5,19.9 45.6,19.9 2.5,0 4.6,-0.4 6.2,-0.8 5.4,-1.7 8.7,-6.2 9.5,-11.6 l 0,-1.7 C 555.8,186.5 550,181.5 543,178.2 Z"
       id="path16"
       inkscape:connector-curvature="0"
       style="fill:#da2d59" /></g></svg>