<?xml version="1.0" encoding="UTF-8" standalone="no"?>
<!-- Generator: Adobe Illustrator 18.0.0, SVG Export Plug-In . SVG Version: 6.00 Build 0)  -->

<svg
   xmlns:dc="http://purl.org/dc/elements/1.1/"
   xmlns:cc="http://creativecommons.org/ns#"
   xmlns:rdf="http://www.w3.org/1999/02/22-rdf-syntax-ns#"
   xmlns:svg="http://www.w3.org/2000/svg"
   xmlns="http://www.w3.org/2000/svg"
   xmlns:sodipodi="http://sodipodi.sourceforge.net/DTD/sodipodi-0.dtd"
   xmlns:inkscape="http://www.inkscape.org/namespaces/inkscape"
   version="1.1"
   id="Layer_1"
   x="0px"
   y="0px"
   viewBox="-5 -5 46.799999 72.800003"
   enable-background="new -5 -5 100 100"
   xml:space="preserve"
   inkscape:version="0.91 r13725"
   sodipodi:docname="tampon_hover.html"
   width="46.799999"
   height="72.800003"><metadata
     id="metadata9"><rdf:RDF><cc:Work
         rdf:about=""><dc:format>image/svg+xml</dc:format><dc:type
           rdf:resource="http://purl.org/dc/dcmitype/StillImage" /><dc:title></dc:title></cc:Work></rdf:RDF></metadata><defs
     id="defs7" /><sodipodi:namedview
     pagecolor="#ffffff"
     bordercolor="#666666"
     borderopacity="1"
     objecttolerance="10"
     gridtolerance="10"
     guidetolerance="10"
     inkscape:pageopacity="0"
     inkscape:pageshadow="2"
     inkscape:window-width="1920"
     inkscape:window-height="1031"
     id="namedview5"
     showgrid="false"
     fit-margin-top="0"
     fit-margin-left="0"
     fit-margin-right="0"
     fit-margin-bottom="0"
     inkscape:zoom="2.36"
     inkscape:cx="18"
     inkscape:cy="36"
     inkscape:window-x="1920"
     inkscape:window-y="0"
     inkscape:window-maximized="1"
     inkscape:current-layer="Layer_1" /><path
     d="m 31.1,20.7 c -5.8,0 -10.5,4.7 -10.5,10.5 l 0,26 c 0,3.8 -3.1,6.8 -6.8,6.8 -3.2,0 -6,-2.3 -6.6,-5.3 l 8.2,0 0,-53.5 C 15.4,-0.4 10.8,-5 5.2,-5 -0.4,-5 -5,-0.4 -5,5.2 l 0,53.6 8.5,0 c 0.7,5.1 5.1,9 10.4,9 5.8,0 10.5,-4.7 10.5,-10.5 l 0,-26 c 0,-3.8 3.1,-6.8 6.8,-6.8 3.7,0 6.8,3.1 6.8,6.8 0,1 0.8,1.9 1.9,1.9 1.1,0 1.9,-0.8 1.9,-1.9 C 41.6,25.4 36.9,20.7 31.1,20.7 Z M -1.1,5.2 c 0,-3.4 2.8,-6.2 6.2,-6.2 3.4,0 6.2,2.8 6.2,6.2 l 0,49.6 -12.4,0 0,-49.6 z"
     id="path3"
     inkscape:connector-curvature="0"
     style="fill:#ffffff" /></svg>