<?xml version="1.0" encoding="UTF-8" standalone="no"?>
<!-- Generator: Adobe Illustrator 18.0.0, SVG Export Plug-In . SVG Version: 6.00 Build 0)  -->

<svg
   xmlns:dc="http://purl.org/dc/elements/1.1/"
   xmlns:cc="http://creativecommons.org/ns#"
   xmlns:rdf="http://www.w3.org/1999/02/22-rdf-syntax-ns#"
   xmlns:svg="http://www.w3.org/2000/svg"
   xmlns="http://www.w3.org/2000/svg"
   xmlns:sodipodi="http://sodipodi.sourceforge.net/DTD/sodipodi-0.dtd"
   xmlns:inkscape="http://www.inkscape.org/namespaces/inkscape"
   version="1.1"
   id="sad"
   x="0px"
   y="0px"
   viewBox="-64.7 0 158.5 69.560486"
   enable-background="new -64.7 0 203 100"
   xml:space="preserve"
   inkscape:version="0.91 r13725"
   sodipodi:docname="ico-faq-remove-hover.svg"
   width="158.5"
   height="69.560486"><metadata
     id="metadata13"><rdf:RDF><cc:Work
         rdf:about=""><dc:format>image/svg+xml</dc:format><dc:type
           rdf:resource="http://purl.org/dc/dcmitype/StillImage" /><dc:title></dc:title></cc:Work></rdf:RDF></metadata><defs
     id="defs11" /><sodipodi:namedview
     pagecolor="#ffffff"
     bordercolor="#666666"
     borderopacity="1"
     objecttolerance="10"
     gridtolerance="10"
     guidetolerance="10"
     inkscape:pageopacity="0"
     inkscape:pageshadow="2"
     inkscape:window-width="1920"
     inkscape:window-height="1031"
     id="namedview9"
     showgrid="false"
     fit-margin-top="0"
     fit-margin-left="0"
     fit-margin-right="0"
     fit-margin-bottom="0"
     inkscape:zoom="1.3497537"
     inkscape:cx="79.800003"
     inkscape:cy="34.8"
     inkscape:window-x="1920"
     inkscape:window-y="0"
     inkscape:window-maximized="1"
     inkscape:current-layer="sad" /><g
     id="g3"
     transform="translate(-21.699997,-15.239512)"><path
       d="m 28.8,47.9 -64.2,0 27.5,-27.5 c 0.8,-0.8 0.8,-2 0,-2.8 -0.8,-0.8 -2,-0.8 -2.8,0 L -43,49.9 -10.6,82.3 c 0.4,0.4 0.9,0.6 1.4,0.6 0.5,0 1,-0.2 1.4,-0.6 0.8,-0.8 0.8,-2 0,-2.8 L -35.3,52 28.9,52 c 1.1,0 2,-0.9 2,-2 0,-1.1 -1,-2.1 -2.1,-2.1 z"
       id="path5"
       inkscape:connector-curvature="0"
       style="fill:#ffffff" /><path
       d="m 111,21.2 c -0.1,0 -0.2,-0.1 -0.2,-0.1 -2.4,-0.9 -6.1,-2.3 -10,-3.4 C 87.9,13.8 84.2,15.3 82.5,17 c -0.4,0.5 -0.8,0.9 -1.2,1.4 -0.4,-0.5 -0.8,-0.9 -1.2,-1.4 -1.7,-1.7 -5.4,-3.2 -18.3,0.7 -3.9,1.2 -7.6,2.5 -10,3.4 -0.1,0 -0.2,0.1 -0.2,0.1 -1.7,0.8 -3.1,2 -4.2,3.4 l 0,0.4 c 0.1,1.3 1,2.3 2.3,2.8 0.4,0.1 0.9,0.2 1.5,0.2 3.3,0 8.5,-2.4 11,-4.8 0.3,-0.1 0.5,-0.2 0.8,-0.2 10.8,-3.3 13.3,-2.2 13.5,-2.1 1.2,1.2 1.9,2.7 2.3,3.4 0,0 0,0.1 0,0.1 l 0,57.8 c 0,1.5 1.2,2.6 2.6,2.6 1.5,0 2.7,-1.2 2.7,-2.6 l 0,-57.8 c 0,0 0,-0.1 0,-0.1 0.3,-0.7 1,-2.2 2.3,-3.4 0.2,-0.1 2.6,-1.2 13.5,2.1 0.3,0.1 0.5,0.2 0.8,0.2 2.4,2.4 7.6,4.8 11,4.8 0.6,0 1.1,-0.1 1.5,-0.2 1.3,-0.4 2.1,-1.5 2.3,-2.8 l 0,-0.4 C 114.1,23.2 112.7,22 111,21.2 Z"
       id="path7"
       inkscape:connector-curvature="0"
       style="fill:#ffffff" /></g></svg>