<?xml version="1.0" encoding="UTF-8" standalone="no"?>
<!-- Generator: Adobe Illustrator 18.0.0, SVG Export Plug-In . SVG Version: 6.00 Build 0)  -->

<svg
   xmlns:dc="http://purl.org/dc/elements/1.1/"
   xmlns:cc="http://creativecommons.org/ns#"
   xmlns:rdf="http://www.w3.org/1999/02/22-rdf-syntax-ns#"
   xmlns:svg="http://www.w3.org/2000/svg"
   xmlns="http://www.w3.org/2000/svg"
   xmlns:sodipodi="http://sodipodi.sourceforge.net/DTD/sodipodi-0.dtd"
   xmlns:inkscape="http://www.inkscape.org/namespaces/inkscape"
   version="1.1"
   id="Layer_1"
   x="0px"
   y="0px"
   viewBox="0 0 300.02553 389.00419"
   enable-background="new 0 0 841.9 595.3"
   xml:space="preserve"
   inkscape:version="0.91 r13725"
   sodipodi:docname="ico-faq-blood.svg"
   width="300.02554"
   height="389.00418"><metadata
     id="metadata26"><rdf:RDF><cc:Work
         rdf:about=""><dc:format>image/svg+xml</dc:format><dc:type
           rdf:resource="http://purl.org/dc/dcmitype/StillImage" /><dc:title></dc:title></cc:Work></rdf:RDF></metadata><defs
     id="defs24" /><sodipodi:namedview
     pagecolor="#ffffff"
     bordercolor="#666666"
     borderopacity="1"
     objecttolerance="10"
     gridtolerance="10"
     guidetolerance="10"
     inkscape:pageopacity="0"
     inkscape:pageshadow="2"
     inkscape:window-width="1920"
     inkscape:window-height="1031"
     id="namedview22"
     showgrid="false"
     fit-margin-top="0"
     fit-margin-left="0"
     fit-margin-right="0"
     fit-margin-bottom="0"
     inkscape:zoom="0.32545432"
     inkscape:cx="155.76488"
     inkscape:cy="203.65001"
     inkscape:window-x="1920"
     inkscape:window-y="0"
     inkscape:window-maximized="1"
     inkscape:current-layer="Layer_1" /><g
     id="g16"
     transform="translate(-265.18513,-112.29582)"><g
       id="g18"><path
         d="m 414.8,501.3 c -39.9,0 -77.4,-15.5 -105.7,-43.8 -24,-24 -39.2,-55.6 -43,-89.2 -3.7,-33.2 3.9,-66.9 21.4,-94.9 C 320.4,221 402,121 405.5,116.7 c 2.3,-2.8 5.7,-4.5 9.4,-4.4 3.6,0 7.1,1.7 9.3,4.5 3.3,4.2 82.4,104.1 118,156.9 18.3,27.1 26.1,60.7 21.9,94.5 -4.1,33.4 -19.6,65.1 -43.7,89.2 -28.2,28.3 -65.7,43.9 -105.6,43.9 z m -0.2,-357.7 c -22.8,28.4 -81.1,101.8 -106.8,142.6 -14.7,23.4 -21,51.6 -17.9,79.4 3.2,28.2 16,54.8 36.1,74.9 23.7,23.7 55.2,36.7 88.7,36.7 33.5,0 65,-13 88.7,-36.7 20.3,-20.3 33.4,-47 36.9,-75.1 3.5,-28.1 -2.9,-55.9 -18,-78.2 C 494.3,245.7 437,172.1 414.6,143.6 Z"
         id="path20"
         inkscape:connector-curvature="0"
         style="fill:#da2d59" /></g></g></svg>