<?xml version="1.0" encoding="UTF-8" standalone="no"?>
<!-- Generator: Adobe Illustrator 18.0.0, SVG Export Plug-In . SVG Version: 6.00 Build 0)  -->

<svg
   xmlns:dc="http://purl.org/dc/elements/1.1/"
   xmlns:cc="http://creativecommons.org/ns#"
   xmlns:rdf="http://www.w3.org/1999/02/22-rdf-syntax-ns#"
   xmlns:svg="http://www.w3.org/2000/svg"
   xmlns="http://www.w3.org/2000/svg"
   xmlns:sodipodi="http://sodipodi.sourceforge.net/DTD/sodipodi-0.dtd"
   xmlns:inkscape="http://www.inkscape.org/namespaces/inkscape"
   version="1.1"
   id="sad"
   x="0px"
   y="0px"
   viewBox="-8 0 817.35938 311.10001"
   enable-background="new -8 0 1092 595.3"
   xml:space="preserve"
   inkscape:version="0.91 r13725"
   sodipodi:docname="ico-faq-ius-vs-iud.svg"
   width="817.35938"
   height="311.10001"><metadata
     id="metadata38"><rdf:RDF><cc:Work
         rdf:about=""><dc:format>image/svg+xml</dc:format><dc:type
           rdf:resource="http://purl.org/dc/dcmitype/StillImage" /><dc:title></dc:title></cc:Work></rdf:RDF></metadata><defs
     id="defs36" /><sodipodi:namedview
     pagecolor="#ffffff"
     bordercolor="#666666"
     borderopacity="1"
     objecttolerance="10"
     gridtolerance="10"
     guidetolerance="10"
     inkscape:pageopacity="0"
     inkscape:pageshadow="2"
     inkscape:window-width="1920"
     inkscape:window-height="1031"
     id="namedview34"
     showgrid="false"
     fit-margin-top="0"
     fit-margin-left="0"
     fit-margin-right="0"
     fit-margin-bottom="0"
     inkscape:zoom="0.25091575"
     inkscape:cx="420.3"
     inkscape:cy="144.35001"
     inkscape:window-x="1920"
     inkscape:window-y="0"
     inkscape:window-maximized="1"
     inkscape:current-layer="sad" /><g
     id="g22"
     transform="translate(-125.7,-130.9)"><path
       d="m 380.7,177.8 c -10,-3.7 -25.3,-9.5 -41.5,-14.1 -53.5,-16.2 -68.8,-10 -75.9,-2.9 -1.7,2.1 -3.3,3.7 -5,5.8 -1.7,-2.1 -3.3,-3.7 -5,-5.8 -7.1,-7.1 -22.4,-13.3 -75.9,2.9 -16.2,5 -31.5,10.4 -41.5,14.1 -0.4,0 -0.8,0.4 -0.8,0.4 -7.1,3.3 -12.9,8.3 -17.4,14.1 l 0,1.7 c 0.4,5.4 4.1,9.5 9.5,11.6 1.7,0.4 3.7,0.8 6.2,0.8 13.7,0 35.3,-10 45.6,-19.9 1.2,-0.4 2.1,-0.8 3.3,-0.8 44.8,-13.7 55.2,-9.1 56,-8.7 5,5 7.9,11.2 9.5,14.1 l 0,0.4 0,239.7 c 0,6.2 5,10.8 10.8,10.8 6.2,0 11.2,-5 11.2,-10.8 l 0,-239.7 0,-0.4 c 1.2,-2.9 4.1,-9.1 9.5,-14.1 0.8,-0.4 10.8,-5 56,8.7 1.2,0.4 2.1,0.8 3.3,0.8 10,10 31.5,19.9 45.6,19.9 2.5,0 4.6,-0.4 6.2,-0.8 5.4,-1.7 8.7,-6.2 9.5,-11.6 l 0,-1.7 c -5.8,-5.8 -11.6,-10.8 -18.7,-14.1 -0.1,0 -0.5,-0.4 -0.5,-0.4 z"
       id="path24"
       inkscape:connector-curvature="0"
       style="fill:#da2d59" /><path
       d="m 934.8,255.4 c -0.4,-1.6 -1.5,-2.9 -2.9,-3.8 l -16.1,-9.1 c -0.5,-8.2 -1.6,-16.2 -3.3,-23.9 l 7.6,3.5 c 0.8,0.4 1.7,0.6 2.6,0.6 2.4,0 4.7,-1.4 5.7,-3.6 0.7,-1.5 0.8,-3.2 0.2,-4.8 -0.6,-1.6 -1.7,-2.8 -3.3,-3.5 L 908,202.9 c -3.3,-9.4 -7.6,-18.2 -12.7,-26 l 13.3,4.8 c 0.7,0.2 1.4,0.4 2.1,0.4 2.6,0 5,-1.7 5.9,-4.1 1.2,-3.2 -0.5,-6.8 -3.7,-8 l -33.7,-12.3 c -8,-7.2 -16.9,-12.5 -26.3,-15.6 -0.9,-0.3 -1.7,-0.4 -2.6,-0.4 0,0 0,0 0,0 -1.6,0 -3,0.5 -4.3,1.2 -2.8,-7 -9.6,-12 -17.6,-12 -8,0 -14.8,5 -17.6,12 -1.3,-0.8 -2.7,-1.2 -4.3,-1.2 -0.9,0 -1.8,0.1 -2.6,0.4 -9.4,3.1 -18.2,8.4 -26.2,15.6 L 744,170 c -3.2,1.2 -4.9,4.8 -3.7,8 0.9,2.5 3.3,4.1 5.9,4.1 0.7,0 1.4,-0.1 2.1,-0.4 l 13.3,-4.8 c -5.1,7.8 -9.4,16.6 -12.7,26 l -17.4,7.9 c -1.5,0.7 -2.7,1.9 -3.3,3.5 -0.6,1.6 -0.5,3.3 0.2,4.8 1,2.2 3.2,3.6 5.7,3.6 0.9,0 1.8,-0.2 2.6,-0.6 l 7.6,-3.5 c -1.7,7.7 -2.8,15.7 -3.3,23.9 l -16.1,9.1 c -1.4,0.8 -2.5,2.2 -2.9,3.8 -0.4,1.6 -0.2,3.3 0.6,4.7 1.1,2 3.2,3.2 5.4,3.2 1.1,0 2.1,-0.3 3.1,-0.8 l 9.7,-5.5 c 0.3,9 1.4,18 3.3,26.7 l -12.9,8.9 c -1.4,0.9 -2.3,2.4 -2.6,4 -0.3,1.6 0.1,3.3 1,4.7 1.2,1.7 3.1,2.7 5.1,2.7 1.3,0 2.5,-0.4 3.5,-1.1 l 9.2,-6.4 c 3.1,9.7 7.1,18.8 12.1,27 l -12,9.9 c -1.3,1.1 -2.1,2.6 -2.2,4.2 -0.2,1.7 0.3,3.3 1.4,4.6 1.2,1.4 2.9,2.3 4.8,2.3 1.4,0 2.9,-0.5 4,-1.4 l 13.6,-11.3 c 0.1,0 0.2,0 0.3,0 1.7,0 3.3,-0.5 4.7,-1.4 3.8,-2.6 4.8,-7.8 2.2,-11.6 -12.2,-18.1 -19,-42 -19,-67.1 0,-45.2 21.3,-83.8 51.8,-93.9 0.6,-0.2 1.2,-0.5 1.8,-0.9 1.2,3 3.2,5.6 5.8,7.7 l 0,265.7 c 0,6.4 5.2,11.6 11.6,11.6 6.4,0 11.6,-5.2 11.6,-11.6 l 0,-265.6 c 2.6,-2 4.6,-4.7 5.8,-7.7 0.6,0.3 1.1,0.6 1.8,0.9 30.5,10.1 51.8,48.8 51.8,93.9 0,25.1 -6.7,48.9 -19,67.1 -2.6,3.8 -1.6,9 2.2,11.6 1.4,0.9 3,1.4 4.7,1.4 0.1,0 0.2,0 0.3,0 l 13.6,11.3 c 1.1,0.9 2.5,1.4 4,1.4 1.9,0 3.6,-0.8 4.8,-2.3 2.2,-2.7 1.8,-6.6 -0.8,-8.8 l -12,-9.9 c 5,-8.2 9,-17.3 12.1,-27 l 9.2,6.3 c 1.1,0.7 2.3,1.1 3.5,1.1 2.1,0 4,-1 5.1,-2.7 0.9,-1.4 1.3,-3 1,-4.7 -0.3,-1.6 -1.2,-3.1 -2.6,-4 l -12.9,-8.9 c 1.9,-8.7 3,-17.6 3.3,-26.7 l 9.7,5.5 c 0.9,0.5 2,0.8 3.1,0.8 2.2,0 4.3,-1.2 5.4,-3.2 1.1,-1.4 1.3,-3 0.8,-4.7 z"
       id="path26"
       inkscape:connector-curvature="0"
       style="fill:#da2d59" /><polygon
       points="479.6,408.2 499.5,408.2 525.5,336.2 505.3,336.2 490,389.3 475,336.2 453.8,336.2 "
       id="polygon28"
       style="fill:#da2d59" /><path
       d="m 575.1,364.9 c -11.2,-2.5 -17.8,-4.2 -19.6,-5.2 -1.9,-1 -2.8,-2.5 -2.8,-4.7 0,-1.7 0.9,-3.2 2.6,-4.5 1.7,-1.3 4.7,-1.9 8.8,-1.9 5,0 8.5,1.3 10.6,3.8 1.1,1.4 1.8,3.3 2,5.7 l 18.8,0 c -0.8,-8.8 -4.1,-15 -9.8,-18.6 -5.7,-3.6 -13,-5.4 -22,-5.4 -9.5,0 -16.8,2.4 -22.1,7.2 -5.2,4.8 -7.8,10.5 -7.8,17.1 0,5.6 1.7,9.9 5,12.9 3.3,3 9.1,5.6 17.3,7.6 11.4,2.7 17.9,4.6 19.7,5.7 1.8,1.1 2.6,2.7 2.6,4.8 0,2.2 -1.1,3.9 -3.3,5 -2.2,1.1 -5.1,1.7 -8.9,1.7 -6.3,0 -10.7,-1.3 -13,-3.8 -1.3,-1.4 -2.2,-3.8 -2.6,-7.1 l -19.1,0 c 0,7.4 2.7,13.5 8.1,18.3 5.4,4.8 13.8,7.2 25.1,7.2 11.1,0 19.3,-2.3 24.6,-6.8 5.3,-4.5 8,-10.3 8,-17.5 0,-5.4 -1.8,-9.9 -5.5,-13.5 -3.6,-3.6 -9.2,-6.3 -16.7,-8 z"
       id="path30"
       inkscape:connector-curvature="0"
       style="fill:#da2d59" /><rect
       x="611"
       y="388.39999"
       width="20"
       height="19.700001"
       id="rect32"
       style="fill:#da2d59" /></g></svg>