<?xml version="1.0" encoding="UTF-8" standalone="no"?>
<!-- Generator: Adobe Illustrator 18.0.0, SVG Export Plug-In . SVG Version: 6.00 Build 0)  -->

<svg
   xmlns:dc="http://purl.org/dc/elements/1.1/"
   xmlns:cc="http://creativecommons.org/ns#"
   xmlns:rdf="http://www.w3.org/1999/02/22-rdf-syntax-ns#"
   xmlns:svg="http://www.w3.org/2000/svg"
   xmlns="http://www.w3.org/2000/svg"
   xmlns:sodipodi="http://sodipodi.sourceforge.net/DTD/sodipodi-0.dtd"
   xmlns:inkscape="http://www.inkscape.org/namespaces/inkscape"
   version="1.1"
   id="Layer_1"
   x="0px"
   y="0px"
   viewBox="0 0 68.699997 68.800003"
   enable-background="new 0 0 100 100"
   xml:space="preserve"
   inkscape:version="0.91 r13725"
   sodipodi:docname="ico-faq-condom.svg"
   width="68.699997"
   height="68.800003"><metadata
     id="metadata18"><rdf:RDF><cc:Work
         rdf:about=""><dc:format>image/svg+xml</dc:format><dc:type
           rdf:resource="http://purl.org/dc/dcmitype/StillImage" /><dc:title></dc:title></cc:Work></rdf:RDF></metadata><defs
     id="defs16" /><sodipodi:namedview
     pagecolor="#ffffff"
     bordercolor="#666666"
     borderopacity="1"
     objecttolerance="10"
     gridtolerance="10"
     guidetolerance="10"
     inkscape:pageopacity="0"
     inkscape:pageshadow="2"
     inkscape:window-width="1920"
     inkscape:window-height="1035"
     id="namedview14"
     showgrid="false"
     fit-margin-top="0"
     fit-margin-left="0"
     fit-margin-right="0"
     fit-margin-bottom="0"
     inkscape:zoom="2.36"
     inkscape:cx="34.7"
     inkscape:cy="35.1"
     inkscape:window-x="0"
     inkscape:window-y="87"
     inkscape:window-maximized="0"
     inkscape:current-layer="Layer_1" /><path
     d="M 68.7,6.1 C 68.7,4.5 68.1,3 66.9,1.8 65.8,0.7 64.3,0 62.6,0 61.2,0 59.9,0.5 58.8,1.3 57.3,0.8 55.7,0.5 54.1,0.5 c -3.7,0 -7.2,1.4 -9.8,4.1 l -37.8,38 c -1.6,-1 -3.9,-0.8 -5.3,0.5 -1.6,1.6 -1.6,4.2 0,5.9 l 18.6,18.6 c 0.8,0.8 1.8,1.2 2.9,1.2 1.1,0 2.1,-0.4 2.9,-1.2 1.4,-1.4 1.6,-3.7 0.5,-5.3 L 64,24.4 C 67.8,20.6 69.1,15 67.3,9.9 68.2,8.8 68.7,7.5 68.7,6.1 Z m -5.6,4.2 c 1.8,3.8 1,8.3 -1.9,11.2 L 20.3,62.3 6.5,48.4 47.4,7.5 c 1.9,-1.9 4.3,-2.9 6.9,-2.9 1.5,0 3,0.3 4.3,1 0.9,0.4 2,0.1 2.5,-0.7 0.1,-0.1 0.1,-0.2 0.2,-0.3 0.7,-0.7 2.1,-0.7 2.8,0 0.8,0.8 0.8,2 0,2.8 C 64,7.5 63.9,7.5 63.8,7.6 63,8.3 62.7,9.4 63.1,10.3 Z"
     id="path12"
     inkscape:connector-curvature="0"
     style="fill:#da2d59" /></svg>