<?xml version="1.0" encoding="UTF-8" standalone="no"?>
<!-- Generator: Adobe Illustrator 18.0.0, SVG Export Plug-In . SVG Version: 6.00 Build 0)  -->

<svg
   xmlns:dc="http://purl.org/dc/elements/1.1/"
   xmlns:cc="http://creativecommons.org/ns#"
   xmlns:rdf="http://www.w3.org/1999/02/22-rdf-syntax-ns#"
   xmlns:svg="http://www.w3.org/2000/svg"
   xmlns="http://www.w3.org/2000/svg"
   xmlns:sodipodi="http://sodipodi.sourceforge.net/DTD/sodipodi-0.dtd"
   xmlns:inkscape="http://www.inkscape.org/namespaces/inkscape"
   version="1.1"
   id="sad"
   x="0px"
   y="0px"
   viewBox="123.3 0 330.4 330.4"
   enable-background="new 123.3 0 595.3 595.3"
   xml:space="preserve"
   inkscape:version="0.91 r13725"
   sodipodi:docname="ico-faq-implant-hover.svg"
   width="330.39999"
   height="330.39999"><metadata
     id="metadata11"><rdf:RDF><cc:Work
         rdf:about=""><dc:format>image/svg+xml</dc:format><dc:type
           rdf:resource="http://purl.org/dc/dcmitype/StillImage" /><dc:title></dc:title></cc:Work></rdf:RDF></metadata><defs
     id="defs9" /><sodipodi:namedview
     pagecolor="#ffffff"
     bordercolor="#666666"
     borderopacity="1"
     objecttolerance="10"
     gridtolerance="10"
     guidetolerance="10"
     inkscape:pageopacity="0"
     inkscape:pageshadow="2"
     inkscape:window-width="1920"
     inkscape:window-height="1031"
     id="namedview7"
     showgrid="false"
     fit-margin-top="0"
     fit-margin-left="0"
     fit-margin-right="0"
     fit-margin-bottom="0"
     inkscape:zoom="0.39643878"
     inkscape:cx="163.85"
     inkscape:cy="152.55001"
     inkscape:window-x="1920"
     inkscape:window-y="0"
     inkscape:window-maximized="1"
     inkscape:current-layer="sad" /><g
     id="g3"
     transform="translate(-133.8,-119.8)"><path
       d="m 285.5,450.2 c -7.6,0 -14.7,-3 -20.1,-8.3 -5.4,-5.4 -8.3,-12.5 -8.3,-20.1 0,-7.6 3,-14.7 8.3,-20.1 L 539,128.1 c 5.4,-5.4 12.5,-8.3 20.1,-8.3 7.6,0 14.7,3 20.1,8.3 5.4,5.4 8.3,12.5 8.3,20.1 0,7.6 -3,14.7 -8.3,20.1 L 305.6,441.9 c -5.4,5.4 -12.5,8.3 -20.1,8.3 z M 559.1,135.8 c -3.3,0 -6.4,1.3 -8.7,3.6 L 276.7,413.1 c -2.3,2.3 -3.6,5.4 -3.6,8.7 0,3.3 1.3,6.4 3.6,8.7 2.3,2.3 5.4,3.6 8.7,3.6 3.3,0 6.4,-1.3 8.7,-3.6 L 567.9,157 c 2.3,-2.3 3.6,-5.4 3.6,-8.7 0,-3.3 -1.3,-6.4 -3.6,-8.7 -2.4,-2.5 -5.5,-3.8 -8.8,-3.8 z"
       id="path5"
       inkscape:connector-curvature="0"
       style="fill:#ffffff" /></g></svg>